PathFileType	4	(X/Y/Z)	/Users/itak/Documents/Research/Walk-IL/dataset/trc/00159_00008.trc
DataRate	CameraRate	NumFrames	NumMarkers	Units	OrigDataRate	OrigDataStartFrame	OrigNumFrames
100.000000	100.000000	4	53	mm	100.000000	138	554
Frame#	Time	RPSI			LPSI			L3			STRN			T10			C7			CLAV			RBAK			LBAK			LSHO			LUPA			LAEL			LAOL			LWTS			LWPS			LFRA			LIFD			LHPS			LHTS			RSHO			RUPA			RAEL			RAOL			RWTS			RWPS			RFRA			RIFD			RHTS			RHPS			RBHD			LFHD			RFHD			LBHD			LHIP			RHIP			RASI			LASI			LKNE			LTHI			LANK			LTIP			LTOE			LMT1			LMT5			LHEE			RKNE			RTHI			RANK			RTIP			RTOE			RMT1			RMT5			RHEE			
		X1	Y1	Z1	X2	Y2	Z2	X3	Y3	Z3	X4	Y4	Z4	X5	Y5	Z5	X6	Y6	Z6	X7	Y7	Z7	X8	Y8	Z8	X9	Y9	Z9	X10	Y10	Z10	X11	Y11	Z11	X12	Y12	Z12	X13	Y13	Z13	X14	Y14	Z14	X15	Y15	Z15	X16	Y16	Z16	X17	Y17	Z17	X18	Y18	Z18	X19	Y19	Z19	X20	Y20	Z20	X21	Y21	Z21	X22	Y22	Z22	X23	Y23	Z23	X24	Y24	Z24	X25	Y25	Z25	X26	Y26	Z26	X27	Y27	Z27	X28	Y28	Z28	X29	Y29	Z29	X30	Y30	Z30	X31	Y31	Z31	X32	Y32	Z32	X33	Y33	Z33	X34	Y34	Z34	X35	Y35	Z35	X36	Y36	Z36	X37	Y37	Z37	X38	Y38	Z38	X39	Y39	Z39	X40	Y40	Z40	X41	Y41	Z41	X42	Y42	Z42	X43	Y43	Z43	X44	Y44	Z44	X45	Y45	Z45	X46	Y46	Z46	X47	Y47	Z47	X48	Y48	Z48	X49	Y49	Z49	X50	Y50	Z50	X51	Y51	Z51	X52	Y52	Z52	X53	Y53	Z53	

139	1.38	-1812.781860351562	1056.426025390625	96.86546325683594	-1813.719116210938	1060.738525390625	-25.06766319274902	-1809.48681640625	1097.763671875	41.03518295288086	-1532.541870117188	1277.780883789062	34.34494781494141	-1828.884643554688	1264.443603515625	39.49564743041992	-1731.275634765625	1523.197265625	23.19389724731445	-1544.945434570312	1395.192749023438	23.84351539611816	-1818.245483398438	1358.935791015625	135.8630828857422	-1743.741333007812	1499.18994140625	-77.8138427734375	-1670.822875976562	1474.654907226562	-157.8480834960938	-1720.648559570312	1345.147827148438	-225.776611328125	-1725.581298828125	1126.113525390625	-238.9425659179688	-1766.864013671875	1114.80810546875	-161.4557037353516	-1610.646362304688	897.2438354492188	-212.2761993408203	-1696.663452148438	872.8381958007812	-243.0368499755859	-1714.612915039062	1014.767333984375	-251.0096740722656	-1592.434814453125	717.67919921875	-187.7358551025391	-1672.15673828125	804.138671875	-241.6621246337891	-1600.8056640625	819.1441650390625	-234.2869110107422	-1668.592163085938	1496.845703125	202.9064483642578	-1693.8017578125	1433.844116210938	274.4237670898438	-1727.212036132812	1147.466430664062	340.7647399902344	-1744.712890625	1140.253173828125	243.7725524902344	-1595.686767578125	915.4813842773438	299.3602600097656	-1665.433227539062	899.7110595703125	354.93994140625	-1701.512084960938	1072.810180664062	354.5201721191406	-1595.14306640625	726.967529296875	270.3050231933594	-1572.517456054688	819.4098510742188	302.9001770019531	-1640.133178710938	815.3380126953125	346.4952697753906	-1629.81005859375	1684.185791015625	92.51904296875	-1481.1962890625	1685.069091796875	-67.37284851074219	-1456.970336914062	1687.845825195312	59.95261764526367	-1658.0771484375	1690.548828125	-41.93994522094727	-1710.450561523438	1000.284606933594	-149.6920013427734	-1657.644287109375	998.445556640625	223.1755218505859	-1580.171875	1026.805786132812	170.1030883789062	-1588.833251953125	1031.164306640625	-89.25685119628906	-1496.348999023438	527.2097778320312	-165.32763671875	-1555.556640625	666.8606567382812	-175.8330535888672	-1704.410522460938	93.31733703613281	-155.1457061767578	-1595.022338867188	309.4678955078125	-173.7769775390625	-1491.687377929688	72.28486633300781	-179.3813323974609	-1526.48974609375	67.67854309082031	-122.1865463256836	-1609.809448242188	70.79045104980469	-215.4444122314453	-1737.282592773438	97.74698638916016	-75.88611602783203	-1693.605102539062	500.3842163085938	155.9713745117188	-1623.951171875	761.5471801757812	210.1853790283203	-1846.668090820312	34.86223602294922	115.4749450683594	-1699.076904296875	379.8666381835938	127.1111221313477	-1625.694946289062	39.1230354309082	84.20353698730469	-1677.992309570312	37.39138793945312	37.61783981323242	-1736.135986328125	30.39883041381836	153.1950988769531	-1895.712646484375	37.61819458007812	47.72171401977539	
140	1.39	-1810.045166015625	1056.3994140625	97.27162170410156	-1810.982543945312	1060.79443359375	-24.61197662353516	-1806.705078125	1097.742919921875	41.60721969604492	-1529.410278320312	1277.402954101562	34.77193069458008	-1825.7939453125	1264.466552734375	40.39695739746094	-1727.769409179688	1523.029052734375	23.89835357666016	-1541.658325195312	1394.844116210938	24.20126914978027	-1814.729858398438	1358.983276367188	136.7818298339844	-1740.4970703125	1499.041381835938	-77.07132720947266	-1667.85791015625	1474.396118164062	-157.2592926025391	-1718.230712890625	1345.01904296875	-225.0329895019531	-1723.932983398438	1126.033447265625	-238.1024169921875	-1764.75048828125	1114.814697265625	-160.3502044677734	-1609.000732421875	896.9806518554688	-212.0516815185547	-1695.209106445312	872.6907348632812	-242.3320770263672	-1713.166625976562	1014.660827636719	-250.2402496337891	-1590.505493164062	717.4652099609375	-187.6691131591797	-1670.715698242188	803.9708862304688	-241.0480346679688	-1599.322265625	818.9658813476562	-234.1273040771484	-1664.773071289062	1496.775512695312	203.4255523681641	-1689.912841796875	1433.899780273438	275.0682678222656	-1723.57275390625	1147.698364257812	341.7120666503906	-1741.080322265625	1140.305419921875	244.7467346191406	-1592.520629882812	915.3359375	300.9512329101562	-1662.375366210938	899.87939453125	356.5786437988281	-1697.980712890625	1073.04931640625	355.6528015136719	-1592.4638671875	726.6890258789062	272.48095703125	-1569.59423828125	819.1860961914062	304.7912292480469	-1637.187744140625	815.4448852539062	348.380126953125	-1626.10302734375	1683.817749023438	92.80923461914062	-1477.764892578125	1684.67041015625	-67.34201049804688	-1453.296142578125	1687.537475585938	59.93747711181641	-1654.601196289062	1690.0908203125	-41.58014678955078	-1707.520263671875	1000.5341796875	-149.2389678955078	-1654.4951171875	998.1971435546875	223.8087921142578	-1577.603881835938	1026.378784179688	170.7366485595703	-1586.047607421875	1031.288818359375	-88.49068450927734	-1489.84326171875	528.8776245117188	-163.8762359619141	-1550.246337890625	668.0814208984375	-174.8613128662109	-1687.132446289062	89.7056884765625	-154.2594299316406	-1583.29345703125	308.6890563964844	-172.8107147216797	-1473.759643554688	73.57036590576172	-177.6625213623047	-1508.729858398438	68.32942962646484	-120.6313323974609	-1591.790649414062	69.15919494628906	-214.1418151855469	-1720.2587890625	93.59591674804688	-75.07688903808594	-1692.86376953125	500.2292175292969	156.4387054443359	-1622.038452148438	761.1668701171875	210.5009002685547	-1846.705810546875	34.77820205688477	115.5788345336914	-1698.640502929688	379.739501953125	127.6959686279297	-1625.787475585938	39.17820358276367	84.35330200195312	-1677.957275390625	37.63210678100586	37.83960723876953	-1736.17529296875	30.20284080505371	153.4414672851562	-1895.703735351562	37.70390319824219	47.77148056030273	
141	1.4	-1807.227294921875	1056.281494140625	97.63590240478516	-1808.14892578125	1060.726196289062	-24.19855690002441	-1803.858032226562	1097.603271484375	42.11843872070312	-1526.18896484375	1276.91455078125	35.1486930847168	-1822.6005859375	1264.423706054688	41.24456405639648	-1724.144165039062	1522.817016601562	24.53539848327637	-1538.2529296875	1394.398071289062	24.50258255004883	-1811.1171875	1358.972045898438	137.6494598388672	-1737.113647460938	1498.819946289062	-76.39015960693359	-1664.742797851562	1474.055541992188	-156.7231750488281	-1715.646484375	1344.818237304688	-224.349609375	-1722.101806640625	1125.884155273438	-237.3677368164062	-1762.504638671875	1114.75341796875	-159.3759613037109	-1607.32275390625	896.63525390625	-211.8529968261719	-1693.691284179688	872.478271484375	-241.7627716064453	-1711.56591796875	1014.486328125	-249.5754699707031	-1588.67236328125	717.1026000976562	-187.5418853759766	-1669.250732421875	803.71728515625	-240.5266265869141	-1597.809692382812	818.6353149414062	-233.9430389404297	-1660.830810546875	1496.623413085938	203.8878631591797	-1685.898193359375	1433.867065429688	275.6646728515625	-1719.886108398438	1147.829345703125	342.6181335449219	-1737.382080078125	1140.273681640625	245.6830749511719	-1589.213623046875	915.1482543945312	302.4721374511719	-1659.224487304688	899.9579467773438	358.0963439941406	-1694.391479492188	1073.181030273438	356.7252807617188	-1589.53759765625	726.4036865234375	274.4825744628906	-1566.472412109375	818.948486328125	306.58447265625	-1634.102172851562	815.47265625	350.101318359375	-1622.341552734375	1683.37060546875	93.03591918945312	-1474.270751953125	1684.238891601562	-67.36705017089844	-1449.567993164062	1687.220336914062	59.86538314819336	-1651.07275390625	1689.525756835938	-41.28281402587891	-1704.5947265625	1000.627014160156	-148.8518829345703	-1651.701538085938	997.8018188476562	224.203125	-1574.9462890625	1025.91064453125	171.3005981445312	-1583.169555664062	1031.318603515625	-87.80580139160156	-1483.563842773438	530.321533203125	-162.3176574707031	-1545.030883789062	669.0805053710938	-173.8544464111328	-1669.131713867188	85.76663208007812	-153.5411987304688	-1571.344360351562	307.7112426757812	-171.9253082275391	-1455.228759765625	74.81874084472656	-175.9721832275391	-1490.400634765625	68.93462371826172	-119.1241836547852	-1573.058227539062	67.32376098632812	-212.9318389892578	-1702.55517578125	89.09465789794922	-74.45849609375	-1692.001342773438	500.0536193847656	156.8919219970703	-1619.995849609375	760.7833862304688	210.7948303222656	-1846.74072265625	34.6963005065918	115.6857604980469	-1698.087646484375	379.5793762207031	128.2635040283203	-1625.88916015625	39.24734878540039	84.51596832275391	-1677.930419921875	37.87992095947266	38.07246780395508	-1736.209838867188	30.01930236816406	153.6935424804688	-1895.713012695312	37.808837890625	47.82901000976562	
142	1.41	-1804.324951171875	1056.065063476562	97.95217895507812	-1805.212036132812	1060.529541015625	-23.83315277099609	-1800.952026367188	1097.338500976562	42.56385040283203	-1522.8779296875	1276.308471679688	35.47334289550781	-1819.31005859375	1264.311889648438	42.03075408935547	-1720.404052734375	1522.553466796875	25.09952354431152	-1534.73046875	1393.843994140625	24.7457332611084	-1807.415283203125	1358.896118164062	138.4615936279297	-1733.596435546875	1498.519653320312	-75.77312469482422	-1661.476806640625	1473.621215820312	-156.2412567138672	-1712.895263671875	1344.534423828125	-223.7292938232422	-1720.08251953125	1125.653564453125	-236.7344665527344	-1760.127807617188	1114.61181640625	-158.5325927734375	-1605.596557617188	896.193115234375	-211.6820373535156	-1692.113525390625	872.188720703125	-241.3239440917969	-1709.81103515625	1014.231750488281	-249.0114135742188	-1586.904907226562	716.6163330078125	-187.3477630615234	-1667.758666992188	803.36474609375	-240.0961456298828	-1596.265014648438	818.1478271484375	-233.7489013671875	-1656.771118164062	1496.376953125	204.293212890625	-1681.764404296875	1433.733032226562	276.2096862792969	-1716.136962890625	1147.845458984375	343.4959716796875	-1733.626220703125	1140.142578125	246.5960388183594	-1585.766723632812	914.9029541015625	303.912353515625	-1655.95654296875	899.9352416992188	359.4945068359375	-1690.73193359375	1073.195922851562	357.7451782226562	-1586.35888671875	726.0990600585938	276.2934265136719	-1563.14892578125	818.6868286132812	308.2593994140625	-1630.86669921875	815.4066772460938	351.6610412597656	-1618.5146484375	1682.83642578125	93.20500183105469	-1470.705322265625	1683.76318359375	-67.44325256347656	-1445.78173828125	1686.878173828125	59.74010848999023	-1647.484252929688	1688.849609375	-41.04452133178711	-1701.669067382812	1000.560241699219	-148.5297088623047	-1649.408203125	997.2173461914062	224.2837677001953	-1572.192749023438	1025.407958984375	171.8089141845703	-1580.189575195312	1031.244995117188	-87.19655609130859	-1477.503173828125	531.5298461914062	-160.6780548095703	-1539.910888671875	669.8455810546875	-172.8379821777344	-1650.49609375	81.61508941650391	-152.9579315185547	-1559.220458984375	306.5813903808594	-171.1072998046875	-1436.2080078125	76.05121612548828	-174.3053436279297	-1471.607299804688	69.52363586425781	-117.6534194946289	-1553.7138671875	65.35511016845703	-211.7891235351562	-1684.254516601562	84.36273193359375	-73.99241638183594	-1691.009521484375	499.8526916503906	157.3236389160156	-1617.83203125	760.3892211914062	211.0816802978516	-1846.773071289062	34.62052154541016	115.7870559692383	-1697.410888671875	379.3860168457031	128.794189453125	-1625.997436523438	39.32963562011719	84.68830871582031	-1677.913940429688	38.12567520141602	38.30736923217773	-1736.23779296875	29.85063171386719	153.9413604736328	-1895.73291015625	37.92738342285156	47.88571166992188	
